<svg width="3764" height="3329" viewBox="0 0 3764 3329" fill="none" xmlns="http://www.w3.org/2000/svg">
<path d="M3748 2349.08C3748 2423.89 3687.88 2484.54 3613.71 2484.54C3539.55 2484.54 3479.43 2423.89 3479.43 2349.08" stroke="#62C1AD" stroke-width="30.3604" stroke-linecap="round" stroke-linejoin="round"/>
<path d="M3748 377.99C3655.13 377.99 3579.85 302.184 3579.85 208.672C3579.85 115.16 3655.13 39.3542 3748 39.3542" stroke="#EB667C" stroke-width="30.3604" stroke-linecap="round" stroke-linejoin="round"/>
<path d="M1323.83 176.925C1323.83 254.434 1386.57 317.269 1463.96 317.269C1541.35 317.269 1604.09 254.434 1604.09 176.925V18.3354" stroke="#62C1AD" stroke-width="30.3604" stroke-linecap="round" stroke-linejoin="round"/>
<path d="M331.831 3313.61C157.403 3313.61 16 3172.99 16 2999.5C16 2826.01 157.403 2685.38 331.831 2685.38H620.874" stroke="#FFC24C" stroke-width="30.3604" stroke-linecap="round" stroke-linejoin="round"/>
<path d="M312.552 3098.75C254.535 3098.75 207.504 3053.27 207.504 2997.16C207.504 2941.05 254.535 2895.57 312.552 2895.57H424.698" stroke="#62C1AD" stroke-width="30.3604" stroke-linecap="round" stroke-linejoin="round"/>
<path d="M3748 1094.96V701.868C3748 624.89 3685.25 562.488 3607.87 562.488C3530.5 562.488 3467.75 624.89 3467.75 701.868V762.713" stroke="#E29673" stroke-width="30.3604" stroke-linecap="round" stroke-linejoin="round"/>
<path d="M921.586 1389.23V1539.36C921.586 1722.23 1069.66 1870.48 1252.32 1870.48H1384.06C1493.97 1870.48 1583.07 1959.68 1583.07 2069.71M1583.07 2270.93H1164.01C1058.38 2270.93 972.75 2356.11 972.75 2461.18C972.75 2566.24 1058.38 2651.42 1164.01 2651.42H1336.97L1583.07 2270.93ZM868.055 3313.61H843.073C769.37 3313.61 709.62 3253.78 709.62 3180.02C709.62 3106.22 769.37 3046.39 843.073 3046.39H1141.02C1249.93 3046.39 1338.21 2958.01 1338.21 2848.98L868.055 3313.61Z" stroke="#E29673" stroke-width="30.3604" stroke-linecap="round" stroke-linejoin="round"/>
<path d="M1384.56 1027.24C1436.15 1027.24 1477.97 985.413 1477.97 933.82C1477.97 882.227 1436.15 840.403 1384.56 840.403C1332.96 840.403 1291.14 882.227 1291.14 933.82C1291.14 985.413 1332.96 1027.24 1384.56 1027.24Z" stroke="#62C1AD" stroke-width="30.3604" stroke-linecap="round" stroke-linejoin="round"/>
<path d="M1641.45 2942.28C1716.26 2942.28 1776.91 2882.16 1776.91 2807.99C1776.91 2733.83 1716.26 2673.71 1641.45 2673.71C1566.64 2673.71 1506 2733.83 1506 2807.99C1506 2882.16 1566.64 2942.28 1641.45 2942.28Z" stroke="#EB667C" stroke-width="30.3604" stroke-linecap="round" stroke-linejoin="round"/>
<path d="M441.046 763.334C522.305 763.334 588.178 697.461 588.178 616.203C588.178 534.944 522.305 469.071 441.046 469.071C359.788 469.071 293.915 534.944 293.915 616.203C293.915 697.461 359.788 763.334 441.046 763.334Z" stroke="#62C1AD" stroke-width="30.3604" stroke-linecap="round" stroke-linejoin="round"/>
<path d="M442.214 936.155C623.432 936.155 770.34 791.34 770.34 612.7C770.34 434.06 623.432 289.244 442.214 289.244C260.996 289.244 114.088 434.06 114.088 612.7" stroke="#FFC24C" stroke-width="30.3604" stroke-linecap="round" stroke-linejoin="round"/>
<path d="M3073.55 2875.62C3023.7 3062.02 3131.55 3252.92 3314.42 3302.02C3497.3 3351.1 3685.98 3239.79 3735.83 3053.39C3785.68 2866.99 3677.84 2676.1 3494.97 2627" stroke="#62C1AD" stroke-width="30.3604" stroke-linecap="round" stroke-linejoin="round"/>
<path d="M1382.22 2059.49H1137.47C1059.16 2059.49 986.692 2086.59 927.649 2132.58M1136.6 2848.86C938.194 2848.86 777.347 2672.69 777.347 2455.37C777.347 2379.91 796.741 2309.41 830.368 2249.53L1136.6 2848.86Z" stroke="#E29673" stroke-width="30.3604" stroke-linecap="round" stroke-linejoin="round"/>
<path d="M778.514 982.864C704.349 982.864 644.228 1042.98 644.228 1117.15C644.228 1191.32 704.349 1251.44 778.514 1251.44C852.68 1251.44 912.801 1191.32 912.801 1117.15V982.864" stroke="#62C1AD" stroke-width="30.3604" stroke-linecap="round" stroke-linejoin="round"/>
<path d="M819.384 196.995C819.384 295.665 898.85 375.655 996.876 375.655C1094.9 375.655 1174.37 295.665 1174.37 196.995C1174.37 98.3241 1094.9 18.3354 996.876 18.3354H819.384" stroke="#EB667C" stroke-width="30.3604" stroke-linecap="round" stroke-linejoin="round"/>
<path d="M178.312 2039.83C92.5389 2039.83 23.0063 1971.04 23.0063 1886.18C23.0063 1801.32 92.5389 1732.53 178.312 1732.53C264.085 1732.53 333.617 1801.32 333.617 1886.18V2356.09" stroke="#62C1AD" stroke-width="30.3604" stroke-linecap="round" stroke-linejoin="round"/>
<path d="M3425.68 2047.81C3425.68 2126.49 3488.44 2190.28 3565.84 2190.28C3643.23 2190.28 3705.96 2126.49 3705.96 2047.81C3705.96 1969.14 3643.23 1905.35 3565.84 1905.35H3096.42" stroke="#62C1AD" stroke-width="30.3604" stroke-linecap="round" stroke-linejoin="round"/>
<path d="M2267.34 342.47C2184.8 342.47 2117.88 408.452 2117.88 489.846C2117.88 571.24 2184.8 637.222 2267.34 637.222C2349.89 637.222 2416.81 571.24 2416.81 489.846V16" stroke="#629DC1" stroke-width="30.3604" stroke-linecap="round" stroke-linejoin="round"/>
<path d="M2148.05 3178.16C2148.05 3103.35 2208.21 3042.7 2282.43 3042.7C2356.65 3042.7 2416.81 3103.35 2416.81 3178.16C2416.81 3252.97 2356.65 3313.61 2282.43 3313.61H2068.83" stroke="#62C1AD" stroke-width="30.3604" stroke-linecap="round" stroke-linejoin="round"/>
<path d="M2555.77 1329.85C2629.93 1329.85 2690.06 1389.67 2690.06 1463.47C2690.06 1537.26 2629.93 1597.08 2555.77 1597.08C2481.6 1597.08 2421.48 1537.26 2421.48 1463.47V964.18" stroke="#E29673" stroke-width="30.3604" stroke-linecap="round" stroke-linejoin="round"/>
<path d="M157.293 1344.17C83.1284 1344.17 23.0063 1403.4 23.0063 1476.46C23.0063 1549.53 83.1284 1608.76 157.293 1608.76C231.457 1608.76 291.58 1549.53 291.58 1476.46V936.155" stroke="#E29673" stroke-width="30.3604" stroke-linecap="round" stroke-linejoin="round"/>
<path d="M1619.74 936.155C1619.74 803.305 1513.77 695.607 1383.04 695.607C1252.32 695.607 1146.34 803.305 1146.34 936.155C1146.34 1069.01 1252.32 1176.7 1383.04 1176.7H2003.44" stroke="#FFC24C" stroke-width="30.3604" stroke-linecap="round" stroke-linejoin="round"/>
<path d="M3511.29 1713.85C3642.04 1713.85 3748 1606.15 3748 1473.3C3748 1340.45 3642.04 1232.75 3511.29 1232.75H2890.9" stroke="#62C1AD" stroke-width="30.3604" stroke-linecap="round" stroke-linejoin="round"/>
<path fill-rule="evenodd" clip-rule="evenodd" d="M2596.64 425.866C2596.64 301.398 2696.45 200.498 2819.58 200.498H3048.63C3171.77 200.498 3271.57 301.398 3271.57 425.866C3271.57 550.334 3171.77 651.234 3048.63 651.234H2819.58C2696.45 651.234 2596.64 550.334 2596.64 425.866Z" stroke="#E29673" stroke-width="30.3604" stroke-linecap="round" stroke-linejoin="round"/>
<path fill-rule="evenodd" clip-rule="evenodd" d="M633.718 2050.15C556.975 2050.15 494.761 1988.04 494.761 1911.43V1516.27C494.761 1439.66 556.975 1377.55 633.718 1377.55C710.462 1377.55 772.676 1439.66 772.676 1516.27V1911.43C772.676 1988.04 710.462 2050.15 633.718 2050.15Z" stroke="#FFC24C" stroke-width="30.3604" stroke-linecap="round" stroke-linejoin="round"/>
<path d="M1945.06 1873.83V1665.19C1945.06 1605.65 1993.68 1557.38 2053.65 1557.38C2113.63 1557.38 2162.25 1605.65 2162.25 1665.19V2082.46C2162.25 2142 2113.63 2190.28 2053.65 2190.28C1993.68 2190.28 1945.06 2142 1945.06 2082.46V2032.05" stroke="#EB667C" stroke-width="30.3604" stroke-linecap="round" stroke-linejoin="round"/>
<path d="M2145.9 758.501V776.69C2145.9 880.238 2061.73 964.18 1957.9 964.18C1854.07 964.18 1769.9 880.238 1769.9 776.69V205.825C1769.9 102.277 1854.07 18.3354 1957.9 18.3354C2061.73 18.3354 2145.9 102.277 2145.9 205.825V211.422" stroke="#FFC24C" stroke-width="30.3604" stroke-linecap="round" stroke-linejoin="round"/>
<path d="M178.896 2239.32H167.66C87.7703 2239.32 23.0063 2304.15 23.0063 2384.12C23.0063 2464.08 87.77 2528.91 167.66 2528.91H501.909C581.8 2528.91 646.563 2464.08 646.563 2384.12C646.563 2304.15 581.8 2239.32 501.909 2239.32H490.674" stroke="#FFC24C" stroke-width="30.3604" stroke-linecap="round" stroke-linejoin="round"/>
<path d="M1765.23 1557.38V2098.35C1765.23 2260.04 1897.5 2391.12 2060.66 2391.12C2223.82 2391.12 2356.09 2260.04 2356.09 2098.35V1970.53" stroke="#62C1AD" stroke-width="30.3604" stroke-linecap="round" stroke-linejoin="round"/>
<path d="M1172.03 2472.86H1657.34C1842.04 2472.86 1991.76 2623.43 1991.76 2809.16C1991.76 2994.88 1842.04 3145.46 1657.34 3145.46H1511.34" stroke="#62C1AD" stroke-width="30.3604" stroke-linecap="round" stroke-linejoin="round"/>
<path d="M1379.88 1653.13H1265.01C1187.87 1653.13 1125.32 1590.39 1125.32 1513C1125.32 1435.62 1187.87 1372.88 1265.01 1372.88H1494.76C1571.9 1372.88 1634.45 1435.62 1634.45 1513V1525.45C1634.45 1595.97 1577.46 1653.13 1507.17 1653.13" stroke="#629DC1" stroke-width="30.3604" stroke-linecap="round" stroke-linejoin="round"/>
<path d="M2555.77 1118.32H2686.98C2775.09 1118.32 2846.53 1050.88 2846.53 967.683C2846.53 884.491 2775.09 817.049 2686.98 817.049H2424.56C2336.44 817.049 2265.01 884.491 2265.01 967.683" stroke="#62C1AD" stroke-width="30.3604" stroke-linecap="round" stroke-linejoin="round"/>
<path d="M1587.74 490.09H1273.2C1074.16 490.09 912.801 652.158 912.801 852.08" stroke="#62C1AD" stroke-width="30.3604" stroke-linecap="round" stroke-linejoin="round"/>
<path d="M3396.52 2834.48C3470.68 2834.48 3530.81 2894.17 3530.81 2967.78C3530.81 3041.4 3470.68 3101.09 3396.52 3101.09C3322.35 3101.09 3262.23 3041.4 3262.23 2967.78V2099.19" stroke="#EB667C" stroke-width="30.3604" stroke-linecap="round" stroke-linejoin="round"/>
<path d="M2391.12 2921.26C2391.12 2784.54 2500.53 2673.71 2635.49 2673.71H3066.06" stroke="#62C1AD" stroke-width="30.3604" stroke-linecap="round" stroke-linejoin="round"/>
<path d="M1755.89 1372.88H1985.63C2139.93 1372.88 2265.01 1247.4 2265.01 1092.63" stroke="#629DC1" stroke-width="30.3604" stroke-linecap="round" stroke-linejoin="round"/>
<path d="M3096.42 2103.86V2229.41C3096.42 2356.12 2993.66 2458.85 2866.88 2458.85H2687.72" stroke="#629DC1" stroke-width="30.3604" stroke-linecap="round" stroke-linejoin="round"/>
<path d="M3530.81 1477.97H3334.61C3192.74 1477.97 3077.73 1594.03 3077.73 1737.2" stroke="#E29673" stroke-width="30.3604" stroke-linecap="round" stroke-linejoin="round"/>
<path d="M520.451 3313.61V3100.81C520.451 2978.29 616.145 2875.65 744.651 2848.86" stroke="#62C1AD" stroke-width="30.3604" stroke-linecap="round" stroke-linejoin="round"/>
<path d="M115.255 777.347C115.255 799.097 115.255 1072.89 115.255 1207.06" stroke="#62C1AD" stroke-width="30.3604" stroke-linecap="round" stroke-linejoin="round"/>
<path d="M2553.43 1765.23C2553.43 1783.2 2553.43 2009.37 2553.43 2120.21" stroke="#62C1AD" stroke-width="30.3604" stroke-linecap="round" stroke-linejoin="round"/>
<path d="M2193.78 2729.76C2193.78 2737.09 2193.78 2829.33 2193.78 2874.55" stroke="#62C1AD" stroke-width="30.3604" stroke-linecap="round" stroke-linejoin="round"/>
<path d="M2239.32 2566.28H2301.85C2431.07 2566.28 2535.83 2461.65 2535.83 2332.59M2890.9 1386.89V1719.29C2890.9 1771.59 2848.17 1813.96 2795.46 1813.96C2742.76 1813.96 2700.03 1856.36 2700.03 1908.66V1928.31C2700.03 1980.61 2742.76 2023.01 2795.46 2023.01C2848.17 2023.01 2890.9 2065.41 2890.9 2117.71V2139.46C2890.9 2203.78 2838.36 2255.91 2773.55 2255.91H2712.75H2623.68L2890.9 1386.89Z" stroke="#FFC24C" stroke-width="30.3604" stroke-linecap="round" stroke-linejoin="round"/>
<path d="M3470.09 926.629V973.996C3470.09 1040.81 3415.76 1094.96 3348.78 1094.96C3281.77 1094.96 3227.44 1040.81 3227.44 973.996V934.761C3227.44 868.46 3173.53 814.713 3107.06 814.713C3040.56 814.713 2986.65 868.46 2986.65 934.761V983.049" stroke="#EB667C" stroke-width="30.3604" stroke-linecap="round" stroke-linejoin="round"/>
<path fill-rule="evenodd" clip-rule="evenodd" d="M2554.6 3019.27C2554.6 2925.17 2630.93 2848.86 2725.09 2848.86C2819.23 2848.86 2895.57 2925.17 2895.57 3019.27V3143.2C2895.57 3237.31 2819.23 3313.61 2725.09 3313.61C2630.93 3313.61 2554.6 3237.31 2554.6 3143.2V3019.27Z" stroke="#629DC1" stroke-width="30.3604" stroke-linecap="round" stroke-linejoin="round"/>
</svg>
